<?xml version="1.0"?>
<svg id="Camada_2" data-name="Camada 2" xmlns="http://www.w3.org/2000/svg" viewBox="0 0 705.31 313.59">
  <defs>
    
  </defs>
  <g id="Camada_1-2" data-name="Camada 1">
    <rect class="cls-1" x=".52" y="153.29" width="704.72" height="160.31"></rect>
    <rect class="cls-2" width="705.31" height="149.78"></rect>
    <g>
      <g>
        <path class="cls-2" d="M213.09,183.14s-.23-.62-.81-1.49c-.46-.68-1.97-2.48-3.44-3.37-1.49-.88-2.56-1.38-7.2-1.57-4.66-.19-7.37,1.92-8.97,3.75-1.59,1.85-6.86,11.57-8.04,13.61-1.19,2.04-39.44,68.25-40.48,70.11-1.05,1.85-3.15,5.48-3.67,7.11-.53,1.62-1.3,5.42.02,8.78,1.53,3.87,4.94,7.49,9.86,9.27,4.93,1.79,8.51.24,11.33-1.79,2.81-2.04,7.58-9.54,7.58-9.54l-5.2-3.75s-1.33,2.32-3.15,4.69c-1.63,2.15-3.4,4.29-6.4,4.14-.97-.05-3.25-.45-4.21-1.11-2.01-1.38-3.08-2.69-3.62-3.9-.74-1.72-.41-3.26-.06-4.7.6-2.44,4.07-8.51,5.63-11.09,1.56-2.59,44.16-74.58,44.97-75.9.81-1.34,2.74-3.7,7.41-4.36,4.67-.66,8.47,1.1,8.47,1.1"></path>
        <path class="cls-2" d="M196.72,206.53s4.16-7.01,6.42-10.03c2.24-3.03,5.04-2.85,6.23-2.85s2.77.45,3.99,1.76c.45.48.74,1.13,1.88,3.01,4.08,6.89,42.16,71.74,42.86,73.68.79,2.2,1.63,5.09-.26,7.46-1.75,2.2-3.33,3.13-5.82,3.65-2.5.51-4-.05-5.56-2.07-1.56-2.01-3.58-6.42-3.58-6.42l-5.63,3.49s2.18,4.77,4.44,7.48c2.26,2.72,5.08,4.48,8.89,4.49,3.82,0,8.54-1.47,12.45-6.61,3.9-5.15,2.22-10.95,1.64-12.25-.58-1.3-5-9.67-6.21-11.72-1.22-2.06-37.45-64.95-38.54-66.76-1.08-1.8-3.9-3.99-7.73-4.76-3.83-.77-7.53-.4-10.9,2.03-3.37,2.44-4.63,5.24-5.07,6.79-.43,1.56-.49,4.07-.27,5.74.22,1.68.77,3.89.77,3.89"></path>
        <path class="cls-2" d="M174.72,246.34s-1.78.49-3.15.95c-1.37.47-4.14,1.83-5.2,2.69-1.06.84-2.86,2.22-4.18,5.69-1.32,3.49-1,7.55.02,10.44,1.02,2.9,3.41,5.18,6.24,6.36,2.84,1.17,6.66,1.38,8.46,1.38l49.93.09c2.33,0,7.42-.3,9.45-1.04,2.01-.74,4.35-2.19,5.45-3.78,1.1-1.57,2.12-4.43,2.34-6.27.22-1.85.32-8.66-4.64-12.31-4.97-3.66-8.69-3.88-8.69-3.88,0,0,4.16,7.04,6,10.2,1.83,3.16.77,6.37-1.07,8.19-1.83,1.81-3.49,2.27-6.07,2.26-2.57,0-50.36-.18-54.29-.19-3.94,0-5.21-1.38-6.47-2.93-1.26-1.54-1.59-5.12-.51-7.03,1.06-1.91,6.37-10.81,6.37-10.81"></path>
        <path class="cls-2" d="M175.3,254.33c-.77,1.27-2.1,3.52-2.53,4.24-.42.7-.84,2,.14,3.51.98,1.48,2.43,1.59,3.25,1.51.83-.09,1.84-.67,2.65-2.14.6-1.1,32.9-57.61,33.25-58.23.34-.61.95-2.82-1.05-4.32-1.82-1.36-4.08-.26-4.77,1.03-.47.88-30.17,53.12-30.94,54.4"></path>
        <path class="cls-2" d="M209.3,214.01l-4.11,6.61s21.01,37.97,21.61,39.1c.6,1.11,1.37,2.92,3.33,2.99,1.71.07,3.09-1.37,3.41-2.05.32-.69.42-2.01.03-2.82-.4-.8-24.27-43.82-24.27-43.82"></path>
        <polygon class="cls-2" points="193.03 245.5 213.97 245.49 218.13 252.53 189 252.49 193.03 245.5"></polygon>
      </g>
      <path class="cls-2" d="M489.41,262.18l14.66.03c-5.13,5.94-9.98,15.47-10.92,22.79h3.68c1.95-11.9,8.34-20.35,10.98-23.13v-2.95s-18.41-.03-18.41-.03v3.28ZM471.1,267.89c.11-1.87.34-6.56,5.37-6.56,3.91,0,5.25,2.69,5.25,4.83,0,3.47-2.04,4.56-4.88,6.19l-3.52,2.05c-3.57,2.09-6.07,5.03-6.28,10.56l18.22.03v-3.15s-14.46-.02-14.46-.02c.16-1.02.94-3.11,4.59-5.11l2.76-1.51c3.98-2.12,7.13-4.11,7.14-8.9.01-4.95-3.69-7.97-8.31-7.97-2.88,0-9.2.86-9.21,9.54l3.34.02ZM454.6,273.03c-2.23,0-5.42-.65-5.4-5.77,0-3.56,2.05-5.97,5.16-5.97,3.82,0,5.38,2.67,5.37,5.69,0,5.27-3.38,6.06-5.13,6.06M454.1,276.03c2.48,0,5.12-1.12,6.12-3.18l.08.09c-.85,6.89-2.79,9.96-6.43,9.95-2.74,0-4.32-1.68-4.5-4.37h-3.34c0,2.57,1.65,7.11,7.91,7.12,9.17.02,9.68-12.15,9.69-14.98,0-4.32-.83-12.36-9.31-12.37-5.61-.01-8.56,4.26-8.56,9.12-.02,5.31,3.42,8.61,8.34,8.62M435.85,258.26h-2.62c-1.07,4.36-2.86,4.76-7.17,5.08v2.64s6.21.01,6.21.01l-.03,18.91h3.56s.05-26.64.05-26.64ZM404.63,273.37c0-3.07,2.43-5.9,5.51-5.9,4.06.01,5.33,2.85,5.52,5.92l-11.03-.02ZM415.5,278.66c-.11,1.47-1.98,3.89-5.11,3.88-3.84,0-5.77-2.38-5.76-6.53l14.47.02c0-7-2.78-11.55-8.5-11.56-6.56-.01-9.53,4.88-9.54,11.01-.01,5.73,3.28,9.93,8.85,9.94,3.19,0,4.49-.75,5.39-1.36,2.5-1.66,3.42-4.47,3.53-5.4h-3.33ZM381.94,274.84c0-2.54.29-7.42,5.45-7.41,4.81.01,5.32,5.21,5.32,8.42-.01,5.28-3.31,6.67-5.44,6.66-3.63-.01-5.34-3.32-5.33-7.66M396.1,257.64l-3.33-.02v9.93s-.1.27-.1.27c-.77-1.14-2.3-3.37-5.89-3.38-5.27,0-8.26,4.29-8.27,9.85,0,4.75,1.94,11.08,8.69,11.09,1.94,0,4.21-.6,5.65-3.3h.08s0,2.74,0,2.74h3.13l.05-27.19ZM373.84,270.61c0-.96-.47-6.19-7.56-6.21-3.9,0-7.5,1.94-7.51,6.32,0,2.73,1.81,4.12,4.58,4.81l3.86.96c2.84.72,3.94,1.25,3.94,2.84-.01,2.21-2.17,3.15-4.55,3.15-4.7-.01-5.16-2.51-5.26-4.05h-3.22c.11,2.38.66,6.92,8.51,6.93,4.48,0,7.86-2.45,7.86-6.55,0-2.69-1.44-4.21-5.57-5.24l-3.33-.82c-2.58-.66-3.61-1.04-3.61-2.67.01-2.47,2.93-2.8,3.95-2.8,4.2,0,4.66,2.09,4.69,3.33h3.22ZM339.6,273.25c0-3.06,2.43-5.89,5.5-5.89,4.04,0,5.35,2.84,5.53,5.91l-11.04-.03ZM350.45,278.55c-.12,1.47-1.97,3.88-5.12,3.88-3.83,0-5.75-2.39-5.75-6.53l14.48.02c0-6.99-2.78-11.54-8.51-11.56-6.56,0-9.52,4.88-9.53,11-.01,5.72,3.3,9.94,8.87,9.94,3.18.01,4.45-.74,5.37-1.34,2.52-1.67,3.42-4.47,3.53-5.4h-3.34ZM312.61,260.63l6.87.02c5,0,8.14,3.47,8.12,10.32,0,6.84-3.12,10.61-7.89,10.6h-7.14s.04-20.94.04-20.94ZM308.89,284.7l10.88.02c8.94.01,11.6-7.87,11.6-13.97.01-7.83-4.34-13.23-11.42-13.23l-11.02-.03-.04,27.22Z"></path>
      <path class="cls-2" d="M299.6,218.77l-6.95-18-7.25,17.98,14.2.02ZM281.82,228.02s-1.88,4.88-2.57,6.49c-.67,1.61-2.96,2.99-4.85,3.09-1.9.08-3.59-.42-4.57-1.02-.97-.62-2.19-2-2.18-3.61,0-1.89.87-3.53,1.83-5.64.96-2.12,13.3-29.36,14.05-31.05.74-1.7,1.97-4.08,4.08-5.27,2.14-1.18,3.72-1.56,6.62-1.13,3,.45,5.35,1.42,7.52,6.44,1.89,4.34,14.82,34,15.25,35.03.41,1.04.71,2.74-.34,4.32-1.06,1.55-3.57,2.1-4.7,2.1s-3.26-.12-4.67-1.52c-1.4-1.41-1.74-2.39-2.08-3.4-.33-1-1.86-4.77-1.86-4.77l-21.53-.03ZM333.71,227.93s13.72.27,15.34.27c1.63,0,4.49,1.86,4.49,4.49-.01,2.63-2.17,4.74-5.59,4.74l-20.51-.03c-1.53,0-6.09-.61-6.08-6.1l.06-35.79c0-2.14,1.75-5.17,5.05-5.17h2.44c2.36,0,4.86,2.37,4.86,4.86l-.05,32.73ZM367.69,232.65c-.01,2.83-2.25,5.31-5.55,5.31h-1.06c-3.34,0-5.74-2.51-5.73-5.01l.06-37.28c0-2.55,1.78-5.25,5.73-5.25h1.21c2.85,0,5.4,2.06,5.4,4.96l-.06,37.28ZM403.32,218.94l-6.96-18-7.25,17.98,14.2.02ZM385.55,228.19s-1.9,4.87-2.58,6.48c-.68,1.63-2.97,3-4.87,3.1-1.89.08-3.56-.42-4.56-1.02-.98-.61-2.18-1.99-2.17-3.61,0-1.89.87-3.53,1.83-5.64.95-2.12,13.3-29.36,14.03-31.05.75-1.7,1.98-4.09,4.11-5.27,2.13-1.2,3.7-1.56,6.61-1.14,2.99.45,5.34,1.42,7.52,6.44,1.88,4.34,14.83,34,15.25,35.02.41,1.04.71,2.74-.33,4.31-1.05,1.56-3.58,2.11-4.71,2.11s-3.27-.12-4.67-1.52c-1.4-1.4-1.75-2.39-2.08-3.4-.32-.99-1.85-4.77-1.85-4.77l-21.53-.03ZM448.72,231.95c.86,1.32,3.22,6.26,6.96,6.26,3.53,0,4.35-3.5,4.35-5.03l.07-37.73c0-2.18-1.25-4.7-4.68-4.7-3.44-.01-4.61,2.88-4.61,4.65l-.04,24.62s-16.11-23.72-17.43-25.63c-1.33-1.89-2.79-3.8-5.2-3.8-2.95-.01-4.54,2.79-4.54,4.8l-.06,37.57c0,2.32,1.5,5.22,4.87,5.22,3.36,0,4.42-3.22,4.42-4.12l.04-24.97s15.02,21.64,15.85,22.87M485.71,190.34c4.31.01,7.69.86,10.05,2.15,2.38,1.34,3.75,3.12,3.75,5.38,0,2.25-1.39,4.56-4.12,4.56-2.76,0-2.37-1.35-7.34-2.08-5-.72-8.83.77-11.69,4.76-2.47,3.45-2.19,8.76-2.19,10.19,0,1.44-.11,5.6,2.22,8.69,2.31,3.1,5.3,4.94,9.04,4.95,3.43,0,6.52-1.68,8.08-2.22,1.57-.56,4.27-1.02,5.83,1.69,1.55,2.71.82,5.73-2.47,7.8-3.32,2.07-10.43,2.62-11.71,2.62-1.27,0-7.48-.51-12.1-4.09-4.59-3.57-7.98-9-8.78-13.51-.79-4.5-1.61-9.81.65-15.88,2.27-6.05,6.46-11.56,13.41-13.78,2.04-.66,3.75-1.24,7.37-1.24M482.53,242.31c1.77-.17,4.95-.44,7.35-.63,3.18-.28,5.14,2.06,5.14,3.92,0,1.61-.24,2.97-1.82,4.02-1.58,1.07-3.26,1.2-4.05,1.27-.78.08-5.93.49-6.71.54-1.13.08-3.02-.43-3.82-1.74-.83-1.32-1.17-2.9-.58-4.44.62-1.54,1.92-2.22,2.59-2.49.59-.22,1.59-.43,1.91-.45M533.74,219.15l-6.95-18-7.25,17.97,14.2.02ZM515.96,228.41s-1.9,4.88-2.59,6.49c-.66,1.62-2.95,3-4.84,3.1-1.9.08-3.58-.42-4.56-1.03-.99-.62-2.19-1.99-2.19-3.61,0-1.89.87-3.52,1.84-5.64.96-2.12,13.29-29.37,14.04-31.07.76-1.68,1.98-4.08,4.11-5.26,2.11-1.2,3.7-1.57,6.61-1.14,2.99.45,5.32,1.41,7.5,6.44,1.88,4.34,14.83,34,15.25,35.03.42,1.03.72,2.73-.34,4.31-1.05,1.55-3.58,2.11-4.7,2.1-1.11,0-3.27-.12-4.67-1.52-1.41-1.41-1.75-2.39-2.07-3.39-.33-1.01-1.86-4.77-1.86-4.77l-21.54-.03Z"></path>
    </g>
    <g>
      <g>
        <path class="cls-1" d="M213.09,24.59s-.23-.62-.81-1.49c-.46-.68-1.97-2.48-3.44-3.37-1.49-.88-2.56-1.38-7.2-1.57-4.66-.19-7.37,1.92-8.97,3.75-1.59,1.85-6.86,11.57-8.04,13.61-1.19,2.04-39.44,68.25-40.48,70.11-1.05,1.85-3.15,5.48-3.67,7.11-.53,1.62-1.3,5.42.02,8.78,1.53,3.87,4.94,7.49,9.86,9.27,4.93,1.79,8.51.24,11.33-1.79,2.81-2.04,7.58-9.54,7.58-9.54l-5.2-3.75s-1.33,2.32-3.15,4.69c-1.63,2.15-3.4,4.29-6.4,4.14-.97-.05-3.25-.45-4.21-1.11-2.01-1.38-3.08-2.69-3.62-3.9-.74-1.72-.41-3.26-.06-4.7.6-2.44,4.07-8.51,5.63-11.09,1.56-2.59,44.16-74.58,44.97-75.9.81-1.34,2.74-3.7,7.41-4.36,4.67-.66,8.47,1.1,8.47,1.1"></path>
        <path class="cls-1" d="M196.72,47.98s4.16-7.01,6.42-10.03c2.24-3.03,5.04-2.85,6.23-2.85s2.77.45,3.99,1.76c.45.48.74,1.13,1.88,3.01,4.08,6.89,42.16,71.74,42.86,73.68.79,2.2,1.63,5.09-.26,7.46-1.75,2.2-3.33,3.13-5.82,3.65-2.5.51-4-.05-5.56-2.07-1.56-2.01-3.58-6.42-3.58-6.42l-5.63,3.49s2.18,4.77,4.44,7.48c2.26,2.72,5.08,4.48,8.89,4.49,3.82,0,8.54-1.47,12.45-6.61,3.9-5.15,2.22-10.95,1.64-12.25-.58-1.3-5-9.67-6.21-11.72-1.22-2.06-37.45-64.95-38.54-66.76-1.08-1.8-3.9-3.99-7.73-4.76-3.83-.77-7.53-.4-10.9,2.03-3.37,2.44-4.63,5.24-5.07,6.79-.43,1.56-.49,4.07-.27,5.74.22,1.68.77,3.89.77,3.89"></path>
        <path class="cls-1" d="M174.72,87.8s-1.78.49-3.15.95c-1.37.47-4.14,1.83-5.2,2.69-1.06.84-2.86,2.22-4.18,5.69-1.32,3.49-1,7.55.02,10.44,1.02,2.9,3.41,5.18,6.24,6.36,2.84,1.17,6.66,1.38,8.46,1.38l49.93.09c2.33,0,7.42-.3,9.45-1.04,2.01-.74,4.35-2.19,5.45-3.78,1.1-1.57,2.12-4.43,2.34-6.27.22-1.85.32-8.66-4.64-12.31-4.97-3.66-8.69-3.88-8.69-3.88,0,0,4.16,7.04,6,10.2,1.83,3.16.77,6.37-1.07,8.19-1.83,1.81-3.49,2.27-6.07,2.26-2.57,0-50.36-.18-54.29-.19-3.94,0-5.21-1.38-6.47-2.93-1.26-1.54-1.59-5.12-.51-7.03,1.06-1.91,6.37-10.81,6.37-10.81"></path>
        <path class="cls-1" d="M175.3,95.78c-.77,1.27-2.1,3.52-2.53,4.24-.42.7-.84,2,.14,3.51.98,1.48,2.43,1.59,3.25,1.51.83-.09,1.84-.67,2.65-2.14.6-1.1,32.9-57.61,33.25-58.23.34-.61.95-2.82-1.05-4.32-1.82-1.36-4.08-.26-4.77,1.03-.47.88-30.17,53.12-30.94,54.4"></path>
        <path class="cls-1" d="M209.3,55.46l-4.11,6.61s21.01,37.97,21.61,39.1c.6,1.11,1.37,2.92,3.33,2.99,1.71.07,3.09-1.37,3.41-2.05.32-.69.42-2.01.03-2.82-.4-.8-24.27-43.82-24.27-43.82"></path>
        <polygon class="cls-1" points="193.03 86.96 213.97 86.94 218.13 93.99 189 93.94 193.03 86.96"></polygon>
      </g>
      <path class="cls-1" d="M489.41,103.63l14.66.03c-5.13,5.94-9.98,15.47-10.92,22.79h3.68c1.95-11.9,8.34-20.35,10.98-23.13v-2.95s-18.41-.03-18.41-.03v3.28ZM471.1,109.34c.11-1.87.34-6.56,5.37-6.56,3.91,0,5.25,2.69,5.25,4.83,0,3.47-2.04,4.56-4.88,6.19l-3.52,2.05c-3.57,2.09-6.07,5.03-6.28,10.56l18.22.03v-3.15s-14.46-.02-14.46-.02c.16-1.02.94-3.11,4.59-5.11l2.76-1.51c3.98-2.12,7.13-4.11,7.14-8.9.01-4.95-3.69-7.97-8.31-7.97-2.88,0-9.2.86-9.21,9.54l3.34.02ZM454.6,114.48c-2.23,0-5.42-.65-5.4-5.77,0-3.56,2.05-5.97,5.16-5.97,3.82,0,5.38,2.67,5.37,5.69,0,5.27-3.38,6.06-5.13,6.06M454.1,117.48c2.48,0,5.12-1.12,6.12-3.18l.08.09c-.85,6.89-2.79,9.96-6.43,9.95-2.74,0-4.32-1.68-4.5-4.37h-3.34c0,2.57,1.65,7.11,7.91,7.12,9.17.02,9.68-12.15,9.69-14.98,0-4.32-.83-12.36-9.31-12.37-5.61-.01-8.56,4.26-8.56,9.12-.02,5.31,3.42,8.61,8.34,8.62M435.85,99.71h-2.62c-1.07,4.36-2.86,4.76-7.17,5.08v2.64s6.21.01,6.21.01l-.03,18.91h3.56s.05-26.64.05-26.64ZM404.63,114.82c0-3.07,2.43-5.9,5.51-5.9,4.06.01,5.33,2.85,5.52,5.92l-11.03-.02ZM415.5,120.11c-.11,1.47-1.98,3.89-5.11,3.88-3.84,0-5.77-2.38-5.76-6.53l14.47.02c0-7-2.78-11.55-8.5-11.56-6.56-.01-9.53,4.88-9.54,11.01-.01,5.73,3.28,9.93,8.85,9.94,3.19,0,4.49-.75,5.39-1.36,2.5-1.66,3.42-4.47,3.53-5.4h-3.33ZM381.94,116.29c0-2.54.29-7.42,5.45-7.41,4.81.01,5.32,5.21,5.32,8.42-.01,5.28-3.31,6.67-5.44,6.66-3.63-.01-5.34-3.32-5.33-7.66M396.1,99.09l-3.33-.02v9.93s-.1.27-.1.27c-.77-1.14-2.3-3.37-5.89-3.38-5.27,0-8.26,4.29-8.27,9.85,0,4.75,1.94,11.08,8.69,11.09,1.94,0,4.21-.6,5.65-3.3h.08s0,2.74,0,2.74h3.13l.05-27.19ZM373.84,112.06c0-.96-.47-6.19-7.56-6.21-3.9,0-7.5,1.94-7.51,6.32,0,2.73,1.81,4.12,4.58,4.81l3.86.96c2.84.72,3.94,1.25,3.94,2.84-.01,2.21-2.17,3.15-4.55,3.15-4.7-.01-5.16-2.51-5.26-4.05h-3.22c.11,2.38.66,6.92,8.51,6.93,4.48,0,7.86-2.45,7.86-6.55,0-2.69-1.44-4.21-5.57-5.24l-3.33-.82c-2.58-.66-3.61-1.04-3.61-2.67.01-2.47,2.93-2.8,3.95-2.8,4.2,0,4.66,2.09,4.69,3.33h3.22ZM339.6,114.7c0-3.06,2.43-5.89,5.5-5.89,4.04,0,5.35,2.84,5.53,5.91l-11.04-.03ZM350.45,120.01c-.12,1.47-1.97,3.88-5.12,3.88-3.83,0-5.75-2.39-5.75-6.53l14.48.02c0-6.99-2.78-11.54-8.51-11.56-6.56,0-9.52,4.88-9.53,11-.01,5.72,3.3,9.94,8.87,9.94,3.18.01,4.45-.74,5.37-1.34,2.52-1.67,3.42-4.47,3.53-5.4h-3.34ZM312.61,102.08l6.87.02c5,0,8.14,3.47,8.12,10.32,0,6.84-3.12,10.61-7.89,10.6h-7.14s.04-20.94.04-20.94ZM308.89,126.15l10.88.02c8.94.01,11.6-7.87,11.6-13.97.01-7.83-4.34-13.23-11.42-13.23l-11.02-.03-.04,27.22Z"></path>
      <path class="cls-1" d="M299.6,60.22l-6.95-18-7.25,17.98,14.2.02ZM281.82,69.48s-1.88,4.88-2.57,6.49c-.67,1.61-2.96,2.99-4.85,3.09-1.9.08-3.59-.42-4.57-1.02-.97-.62-2.19-2-2.18-3.61,0-1.89.87-3.53,1.83-5.64.96-2.12,13.3-29.36,14.05-31.05.74-1.7,1.97-4.08,4.08-5.27,2.14-1.18,3.72-1.56,6.62-1.13,3,.45,5.35,1.42,7.52,6.44,1.89,4.34,14.82,34,15.25,35.03.41,1.04.71,2.74-.34,4.32-1.06,1.55-3.57,2.1-4.7,2.1s-3.26-.12-4.67-1.52c-1.4-1.41-1.74-2.39-2.08-3.4-.33-1-1.86-4.77-1.86-4.77l-21.53-.03ZM333.71,69.38s13.72.27,15.34.27c1.63,0,4.49,1.86,4.49,4.49-.01,2.63-2.17,4.74-5.59,4.74l-20.51-.03c-1.53,0-6.09-.61-6.08-6.1l.06-35.79c0-2.14,1.75-5.17,5.05-5.17h2.44c2.36,0,4.86,2.37,4.86,4.86l-.05,32.73ZM367.69,74.11c-.01,2.83-2.25,5.31-5.55,5.31h-1.06c-3.34,0-5.74-2.51-5.73-5.01l.06-37.28c0-2.55,1.78-5.25,5.73-5.25h1.21c2.85,0,5.4,2.06,5.4,4.96l-.06,37.28ZM403.32,60.39l-6.96-18-7.25,17.98,14.2.02ZM385.55,69.65s-1.9,4.87-2.58,6.48c-.68,1.63-2.97,3-4.87,3.1-1.89.08-3.56-.42-4.56-1.02-.98-.61-2.18-1.99-2.17-3.61,0-1.89.87-3.53,1.83-5.64.95-2.12,13.3-29.36,14.03-31.05.75-1.7,1.98-4.09,4.11-5.27,2.13-1.2,3.7-1.56,6.61-1.14,2.99.45,5.34,1.42,7.52,6.44,1.88,4.34,14.83,34,15.25,35.02.41,1.04.71,2.74-.33,4.31-1.05,1.56-3.58,2.11-4.71,2.11s-3.27-.12-4.67-1.52c-1.4-1.4-1.75-2.39-2.08-3.4-.32-.99-1.85-4.77-1.85-4.77l-21.53-.03ZM448.72,73.4c.86,1.32,3.22,6.26,6.96,6.26,3.53,0,4.35-3.5,4.35-5.03l.07-37.73c0-2.18-1.25-4.7-4.68-4.7-3.44-.01-4.61,2.88-4.61,4.65l-.04,24.62s-16.11-23.72-17.43-25.63c-1.33-1.89-2.79-3.8-5.2-3.8-2.95-.01-4.54,2.79-4.54,4.8l-.06,37.57c0,2.32,1.5,5.22,4.87,5.22,3.36,0,4.42-3.22,4.42-4.12l.04-24.97s15.02,21.64,15.85,22.87M485.71,31.79c4.31.01,7.69.86,10.05,2.15,2.38,1.34,3.75,3.12,3.75,5.38,0,2.25-1.39,4.56-4.12,4.56-2.76,0-2.37-1.35-7.34-2.08-5-.72-8.83.77-11.69,4.76-2.47,3.45-2.19,8.76-2.19,10.19,0,1.44-.11,5.6,2.22,8.69,2.31,3.1,5.3,4.94,9.04,4.95,3.43,0,6.52-1.68,8.08-2.22,1.57-.56,4.27-1.02,5.83,1.69,1.55,2.71.82,5.73-2.47,7.8-3.32,2.07-10.43,2.62-11.71,2.62-1.27,0-7.48-.51-12.1-4.09-4.59-3.57-7.98-9-8.78-13.51-.79-4.5-1.61-9.81.65-15.88,2.27-6.05,6.46-11.56,13.41-13.78,2.04-.66,3.75-1.24,7.37-1.24M482.53,83.76c1.77-.17,4.95-.44,7.35-.63,3.18-.28,5.14,2.06,5.14,3.92,0,1.61-.24,2.97-1.82,4.02-1.58,1.07-3.26,1.2-4.05,1.27-.78.08-5.93.49-6.71.54-1.13.08-3.02-.43-3.82-1.74-.83-1.32-1.17-2.9-.58-4.44.62-1.54,1.92-2.22,2.59-2.49.59-.22,1.59-.43,1.91-.45M533.74,60.61l-6.95-18-7.25,17.97,14.2.02ZM515.96,69.87s-1.9,4.88-2.59,6.49c-.66,1.62-2.95,3-4.84,3.1-1.9.08-3.58-.42-4.56-1.03-.99-.62-2.19-1.99-2.19-3.61,0-1.89.87-3.52,1.84-5.64.96-2.12,13.29-29.37,14.04-31.07.76-1.68,1.98-4.08,4.11-5.26,2.11-1.2,3.7-1.57,6.61-1.14,2.99.45,5.32,1.41,7.5,6.44,1.88,4.34,14.83,34,15.25,35.03.42,1.03.72,2.73-.34,4.31-1.05,1.55-3.58,2.11-4.7,2.1-1.11,0-3.27-.12-4.67-1.52-1.41-1.41-1.75-2.39-2.07-3.39-.33-1.01-1.86-4.77-1.86-4.77l-21.54-.03Z"></path>
    </g>
  </g>
</svg>